<svg xmlns="http://www.w3.org/2000/svg" version="1.1" xmlns:xlink="http://www.w3.org/1999/xlink" xmlns:svgjs="http://svgjs.dev/svgjs" width="1000" height="1000" viewBox="0 0 1000 1000"><rect width="1000" height="1000" fill="#000000"></rect><g transform="matrix(0.7,0,0,0.7,149.57575757575756,373.2717626910537)"><svg viewBox="0 0 396 143" data-background-color="#444444" preserveAspectRatio="xMidYMid meet" height="361" width="1000" xmlns="http://www.w3.org/2000/svg" xmlns:xlink="http://www.w3.org/1999/xlink"><defs></defs><g id="tight-bounds" transform="matrix(1,0,0,1,0.2400000000000091,0.21404010755568947)"><svg viewBox="0 0 395.52 142.5719197848886" height="142.5719197848886" width="395.52"><g><svg viewBox="0 0 678.0963015232329 244.43135999999998" height="142.5719197848886" width="395.52"><g transform="matrix(1,0,0,1,0,12.77465674103479)"><svg viewBox="0 0 395.52 218.8820465179304" height="218.8820465179304" width="395.52"><g><svg viewBox="0 0 395.52 218.8820465179304" height="218.8820465179304" width="395.52"><g><svg viewBox="0 0 395.52 161.5790742101396" height="161.5790742101396" width="395.52"><g transform="matrix(1,0,0,1,0,0)"><svg width="395.52" viewBox="0 -31.040000915527344 108.87000274658203 44.47999954223633" height="161.5790742101396" data-palette-color="#ffffff"><path d="M31.6-0.92L31.6-0.92Q31.6 4.52 34.08 4.52L34.08 4.52Q35.68 4.52 36.76 2.16L36.76 2.16Q37 1.76 37.48 1.92L37.48 1.92Q37.68 2 37.58 2.26 37.48 2.52 37.28 2.9 37.08 3.28 36.56 4.08L36.56 4.08Q35.36 5.84 33.8 5.84L33.8 5.84Q28.96 5.84 28.96-1.84L28.96-1.84Q28.96-10.48 35.08-28.84L35.08-28.84Q35.24-29.32 34.9-29.32 34.56-29.32 34.16-28.96L34.16-28.96Q32.04-26.96 29.82-23.6 27.6-20.24 25.92-16.8L25.92-16.8Q22.96-10.84 21.56-6.88L21.56-6.88Q19.68-1.32 18.24-1.32L18.24-1.32Q17.4-1.32 17.4-2.16L17.4-2.16Q17.4-2.2 17.44-2.24L17.44-2.24Q22.44-20.36 22.44-25L22.44-25Q22.44-27.08 21.52-27.08L21.52-27.08Q19.68-27.08 15.72-20.22 11.76-13.36 9.76-6.48L9.76-6.48Q7.36 1.8 5.52 1.8L5.52 1.8Q4.68 1.8 4.68 0.92L4.68 0.92Q4.72 0.8 4.92 0.24 5.12-0.32 5.44-1.42 5.76-2.52 6.46-4.9 7.16-7.28 7.64-9.52L7.64-9.52Q9.24-16.96 9.24-20.24L9.24-20.24Q9.24-22 9-23.74 8.76-25.48 7.8-26.56 6.84-27.64 5.28-27.64L5.28-27.64Q2.84-27.64 1.84-25.6L1.84-25.6Q1.52-24.88 1.52-24.38 1.52-23.88 1.8-23.88L1.8-23.88Q1.68-23.32 0.84-23.32 0-23.32 0-24.4L0-24.4Q0-26.04 1.66-27.32 3.32-28.6 5.44-28.6 7.56-28.6 8.82-27.54 10.08-26.48 10.64-24.72L10.64-24.72Q11.56-21.8 11.56-18.4L11.56-18.4Q11.56-17.12 11.4-15.76L11.4-15.76 11.8-15.76Q18.16-28.64 22.48-28.64L22.48-28.64Q24.96-28.64 24.96-24.4L24.96-24.4Q24.96-22.36 24.04-17.24L24.04-17.24 24.4-17.24Q31.72-31.04 36.4-31.04L36.4-31.04Q38.2-31.04 38.2-29.04L38.2-29.04Q36.96-25.96 35.44-20.64L35.44-20.64Q31.6-7.48 31.6-0.92ZM39.76-3.4L39.76-3.4Q39.76-9.32 40.98-13.96 42.2-18.6 44.08-18.6L44.08-18.6Q45-18.6 45-17.6L45-17.6Q44.6-16.56 44-14.84 43.4-13.12 42.42-8.62 41.44-4.12 41.44-0.6L41.44-0.6Q41.44-0.04 40.84-0.04L40.84-0.04Q39.76-0.04 39.76-3.4ZM45.6-23.04L45.12-22.36Q44.28-22.36 44.28-23.96L44.28-23.96Q44.28-24.92 44.8-25.98 45.32-27.04 46.28-27.04L46.28-27.04Q47.08-27.04 47.08-26.12L47.08-26.12Q47.08-25.2 45.6-23.04L45.6-23.04ZM50.8 0L50.8 0Q47.44 0 47.44-5.16L47.44-5.16Q47.44-8.16 48.96-11.76L48.96-11.76Q51.04-16.8 54.44-18.6L54.44-18.6Q55.92-19.4 57.12-19.4 58.32-19.4 58.95-18.98 59.59-18.56 59.8-18.12L59.8-18.12 60-17.68Q59.88-17 59.28-17 58.68-17 58.42-17.66 58.16-18.32 57.2-18.32L57.2-18.32Q54.59-18.32 52.55-13.72L52.55-13.72Q50.2-8.52 50.2-3.88L50.2-3.88Q50.2-1.44 51.2-1.44L51.2-1.44Q52-1.44 53.54-3.42 55.08-5.4 56.72-8.24L56.72-8.24Q58.95-12.16 60.68-15.4L60.68-15.4Q62.12-21.64 64.18-26.3 66.23-30.96 67.59-30.96L67.59-30.96Q68.28-30.96 68.28-30.28L68.28-30.28Q67.31-28.2 66.02-24.6 64.72-21 63.81-17.74 62.92-14.48 62.18-9.96 61.44-5.44 61.44-1.44L61.44-1.44Q61.44 4.52 64.03 4.52L64.03 4.52Q65.03 4.52 65.9 3.66 66.75 2.8 67.12 1.96L67.12 1.96Q67.31 1.52 67.84 1.72L67.84 1.72Q68.03 1.8 68 1.96L68 1.96Q67.75 2.48 67.4 3.16 67.03 3.84 65.97 4.84 64.92 5.84 63.84 5.84L63.84 5.84Q59.08 5.84 59.08-3.12L59.08-3.12Q59.08-6.28 59.64-9.88L59.64-9.88 59.12-9.88Q53.48 0 50.8 0ZM70.27 0L70.27 0Q66.91 0 66.91-5.16L66.91-5.16Q66.91-8.16 68.43-11.76L68.43-11.76Q70.51-16.8 73.91-18.6L73.91-18.6Q75.39-19.4 76.59-19.4 77.79-19.4 78.43-18.98 79.07-18.56 79.27-18.12L79.27-18.12 79.47-17.68Q79.35-17 78.75-17 78.15-17 77.89-17.66 77.63-18.32 76.67-18.32L76.67-18.32Q74.07-18.32 72.03-13.72L72.03-13.72Q69.67-8.52 69.67-3.88L69.67-3.88Q69.67-1.44 70.67-1.44L70.67-1.44Q71.47-1.44 73.01-3.42 74.55-5.4 76.19-8.24L76.19-8.24Q78.43-12.16 80.15-15.4L80.15-15.4Q81.59-21.64 83.65-26.3 85.71-30.96 87.07-30.96L87.07-30.96Q87.75-30.96 87.75-30.28L87.75-30.28Q86.79-28.2 85.49-24.6 84.19-21 83.29-17.74 82.39-14.48 81.65-9.96 80.91-5.44 80.91-1.44L80.91-1.44Q80.91 4.52 83.51 4.52L83.51 4.52Q84.51 4.52 85.37 3.66 86.23 2.8 86.59 1.96L86.59 1.96Q86.79 1.52 87.31 1.72L87.31 1.72Q87.51 1.8 87.47 1.96L87.47 1.96Q87.23 2.48 86.87 3.16 86.51 3.84 85.45 4.84 84.39 5.84 83.31 5.84L83.31 5.84Q78.55 5.84 78.55-3.12L78.55-3.12Q78.55-6.28 79.11-9.88L79.11-9.88 78.59-9.88Q72.95 0 70.27 0ZM87.43-3.4L87.43-3.4Q87.43-9.32 88.65-13.96 89.87-18.6 91.75-18.6L91.75-18.6Q92.67-18.6 92.67-17.6L92.67-17.6Q92.27-16.56 91.67-14.84 91.07-13.12 90.09-8.62 89.11-4.12 89.11-0.6L89.11-0.6Q89.11-0.04 88.51-0.04L88.51-0.04Q87.43-0.04 87.43-3.4ZM93.27-23.04L92.79-22.36Q91.95-22.36 91.95-23.96L91.95-23.96Q91.95-24.92 92.47-25.98 92.99-27.04 93.95-27.04L93.95-27.04Q94.75-27.04 94.75-26.12L94.75-26.12Q94.75-25.2 93.27-23.04L93.27-23.04ZM94.67 13.44L94.67 13.44Q91.55 13.44 91.55 10.44L91.55 10.44Q91.55 7.8 94.25 4.22 96.95 0.64 101.03-0.92L101.03-0.92Q101.23-1 101.43-0.82 101.63-0.64 101.63-0.42 101.63-0.2 101.39-0.08L101.39-0.08Q97.27 1.44 94.47 5.52L94.47 5.52Q92.59 8.32 92.59 10.12 92.59 11.92 93.99 11.96L93.99 11.96Q97.31 11.96 101.23 7.4L101.23 7.4Q104.55 3.56 105.71-0.28L105.71-0.28Q106.11-1.6 106.11-2.48L106.11-2.48Q106.11-4.36 104.35-4.36L104.35-4.36Q102.99-4.36 101.03-3.46 99.07-2.56 98.51-2.56L98.51-2.56Q97.59-2.56 97.35-3.92L97.35-3.92 97.27-4.4Q100.23-4.4 103.27-8.48L103.27-8.48Q105.83-12 106.39-15.32L106.39-15.32Q106.47-15.92 106.47-16.4L106.47-16.4Q106.47-18.32 104.91-18.36L104.91-18.36Q103.31-18.36 101.77-17.14 100.23-15.92 99.25-14.34 98.27-12.76 97.67-11.48 97.07-10.2 97.07-9.92 97.07-9.64 96.69-9.54 96.31-9.44 95.93-9.64 95.55-9.84 95.55-10.3 95.55-10.76 96.31-12.18 97.07-13.6 98.29-15.26 99.51-16.92 101.37-18.2 103.23-19.48 105.05-19.48 106.87-19.48 107.87-18.28 108.87-17.08 108.87-15.16L108.87-15.16Q108.87-10 103.59-5.36L103.59-5.36Q104.07-5.44 104.35-5.44L104.35-5.44Q108.11-5.44 108.11-1.28L108.11-1.28Q108.11 1.72 105.87 5.56L105.87 5.56Q103.11 10.24 99.11 12.32L99.11 12.32Q96.87 13.44 94.67 13.44Z" opacity="1" transform="matrix(1,0,0,1,0,0)" fill="#ffffff" class="undefined-text-0" data-fill-palette-color="primary" id="text-0"></path></svg></g></svg></g><g transform="matrix(1,0,0,1,163.310208,199.7240157333725)"><svg viewBox="0 0 232.209792 19.15803078455791" height="19.15803078455791" width="232.209792"><g transform="matrix(1,0,0,1,0,0)"><svg width="232.209792" viewBox="2.200000047683716 -32.400001525878906 481.75 39.75" height="19.15803078455791" data-palette-color="#00d1cd"><path d="M12.9-10.15L12.9-10.15 10.6-10.15 10.6 0 2.2 0 2.2-31.05 12.35-31.05Q17.7-31.05 20.3-28.6 22.9-26.15 22.9-20.55 22.9-14.95 20.45-12.55 18-10.15 12.9-10.15ZM13.85-16.9Q14.3-17.75 14.3-19.95 14.3-22.15 13.8-23.05 13.3-23.95 11.8-23.95L11.8-23.95 10.6-23.95 10.6-16.05 12-16.05Q13.4-16.05 13.85-16.9ZM33-13.45L33-13.45 33 0 24.7 0 24.7-23.95 32-23.95 32.5-22.5 32.7-22.5Q33.85-23.8 35.02-24.18 36.2-24.55 38.85-24.55L38.85-24.55 38.5-16.55 36.2-16.55Q34.25-16.55 33.62-15.95 33-15.35 33-13.45ZM39.95-12.08Q39.95-18.65 42.47-21.6 45-24.55 50.37-24.55 55.75-24.55 58.2-21.65 60.65-18.75 60.65-12.13 60.65-5.5 58.25-2.5 55.85 0.5 50.4 0.5 44.95 0.5 42.45-2.5 39.95-5.5 39.95-12.08ZM51.97-16.8Q51.65-17.8 50.35-17.8 49.05-17.8 48.7-16.8 48.35-15.8 48.35-12.6L48.35-12.6 48.35-11.4Q48.35-7.85 48.7-6.8 49.05-5.75 50.32-5.75 51.6-5.75 51.95-6.8 52.3-7.85 52.3-11.1L52.3-11.1 52.3-12.55Q52.3-15.8 51.97-16.8ZM70.49 2.2L70.49 2.2 75.64 2.2Q76.54 2.2 76.54 1.4L76.54 1.4 76.54 1.2Q76.54 0.45 75.64 0.45L75.64 0.45 70.49 0.45Q69.69 0.45 69.69 1.25L69.69 1.25 69.69 1.45Q69.69 2.2 70.49 2.2ZM72.49-24.55L72.49-24.55 84.29-24.55 84.29-18.95 80.69-18.95 80.69-18.7Q82.29-17.3 82.29-15.05L82.29-15.05Q82.29-7.05 73.24-7.05L73.24-7.05 70.84-7.05Q69.94-7.05 69.94-6.23 69.94-5.4 70.79-5.4L70.79-5.4 77.59-5.4Q83.34-5.4 83.34-0.4L83.34-0.4Q83.34 3.7 80.59 5.53 77.84 7.35 72.99 7.35 68.14 7.35 65.67 6.33 63.19 5.3 63.19 2.5L63.19 2.5Q63.19 0.95 65.14-0.1L65.14-0.1 65.14-0.3Q62.69-1.65 62.69-4.2L62.69-4.2Q62.69-7.2 66.54-8.75L66.54-8.75Q64.74-10.05 63.87-11.78 62.99-13.5 62.99-16.35L62.99-16.35Q62.99-20.3 65.57-22.43 68.14-24.55 72.49-24.55ZM74.69-14.95Q74.69-16.55 74.32-17.28 73.94-18 72.94-18 71.94-18 71.57-17.28 71.19-16.55 71.19-15.05L71.19-15.05Q71.19-12 72.99-12L72.99-12Q74.69-12 74.69-14.95L74.69-14.95ZM94.04-13.45L94.04-13.45 94.04 0 85.74 0 85.74-23.95 93.04-23.95 93.54-22.5 93.74-22.5Q94.89-23.8 96.07-24.18 97.24-24.55 99.89-24.55L99.89-24.55 99.54-16.55 97.24-16.55Q95.29-16.55 94.67-15.95 94.04-15.35 94.04-13.45ZM119.44-17.7L119.44-17.7 119.19-7.35Q119.19-6.4 119.66-6.08 120.14-5.75 121.29-5.75L121.29-5.75 120.54 0.3Q117.64 0.5 117.34 0.5L117.34 0.5Q113.64 0.5 112.64-2.05L112.64-2.05 112.39-2.05Q110.54 0.5 106.69 0.5L106.69 0.5Q103.74 0.5 102.16-1.4 100.59-3.3 100.59-6.6L100.59-6.6Q100.59-10.75 103.16-12.35 105.74-13.95 111.29-14.45L111.29-14.45 111.29-15.65Q111.29-17.05 109.89-17.05L109.89-17.05Q107.49-17.05 102.39-15.6L102.39-15.6 101.14-22.9Q107.54-24.55 111.79-24.55 116.04-24.55 117.74-22.9 119.44-21.25 119.44-17.7ZM109.79-5.35L109.79-5.35Q111.64-5.35 111.64-7.3L111.64-7.3 111.64-9.75Q109.79-9.5 109.01-8.97 108.24-8.45 108.24-7.2L108.24-7.2Q108.24-5.35 109.79-5.35ZM142.99-21.75L143.49-22.2Q146.24-24.55 149.54-24.55 152.84-24.55 154.16-23.03 155.49-21.5 155.49-18.45L155.49-18.45 155.49 0 146.99 0 146.99-15.6Q146.99-16.85 145.89-16.85L145.89-16.85Q144.49-16.85 143.54-16.15L143.54-16.15 143.54 0 135.04 0 135.04-15.6Q135.04-16.85 133.94-16.85L133.94-16.85Q132.54-16.85 131.59-16.15L131.59-16.15 131.59 0 123.19 0 123.19-23.95 130.84-23.95 131.34-22.2 131.54-22.2Q134.29-24.55 138.06-24.55 141.84-24.55 142.99-21.75L142.99-21.75ZM178.28-21.75L178.78-22.2Q181.53-24.55 184.83-24.55 188.13-24.55 189.46-23.03 190.78-21.5 190.78-18.45L190.78-18.45 190.78 0 182.28 0 182.28-15.6Q182.28-16.85 181.18-16.85L181.18-16.85Q179.78-16.85 178.83-16.15L178.83-16.15 178.83 0 170.33 0 170.33-15.6Q170.33-16.85 169.23-16.85L169.23-16.85Q167.83-16.85 166.88-16.15L166.88-16.15 166.88 0 158.48 0 158.48-23.95 166.13-23.95 166.63-22.2 166.83-22.2Q169.58-24.55 173.36-24.55 177.13-24.55 178.28-21.75L178.28-21.75ZM203.78-17.4L203.78-17.4Q202.48-17.4 202.08-16.53 201.68-15.65 201.68-13.85L201.68-13.85 206.03-13.85 206.03-15.05Q206.03-17.4 203.78-17.4ZM203.98-24.55L203.98-24.55Q209.13-24.55 211.36-22.08 213.58-19.6 213.58-15L213.58-15Q213.58-14.4 213.23-9.6L213.23-9.6 201.83-9.6Q201.83-5.85 205.28-5.85L205.28-5.85Q206.93-5.85 211.73-7L211.73-7 212.43-0.8Q208.23 0.5 204.03 0.5L204.03 0.5Q198.88 0.5 196.13-2.88 193.38-6.25 193.38-12.05L193.38-12.05Q193.38-24.55 203.98-24.55ZM224.18-13.45L224.18-13.45 224.18 0 215.88 0 215.88-23.95 223.18-23.95 223.68-22.5 223.88-22.5Q225.03-23.8 226.2-24.18 227.38-24.55 230.03-24.55L230.03-24.55 229.68-16.55 227.38-16.55Q225.43-16.55 224.8-15.95 224.18-15.35 224.18-13.45ZM259.32-31.05L265.02 0 256.67 0 255.72-4.9 249.82-4.9 248.87 0 240.92 0 246.62-31.05 259.32-31.05ZM250.92-10.75L254.77-10.75 253.02-21.85 252.67-21.85 250.92-10.75ZM275.07-22.2L275.27-22.2Q278.02-24.55 281.32-24.55 284.62-24.55 285.94-23.03 287.27-21.5 287.27-18.45L287.27-18.45 287.27 0 278.77 0 278.77-15.6Q278.77-16.85 277.67-16.85L277.67-16.85Q276.27-16.85 275.32-16.15L275.32-16.15 275.32 0 266.92 0 266.92-23.95 274.57-23.95 275.07-22.2ZM312.22-5.75L311.47 0.3 308.12 0.5Q304.27 0.5 303.42-2.05L303.42-2.05 303.17-2.05Q301.52 0.5 298.12 0.5L298.12 0.5Q293.62 0.5 291.79-2.65 289.97-5.8 289.97-12.03 289.97-18.25 292.02-21.4 294.07-24.55 297.92-24.55L297.92-24.55Q300.57-24.55 302.02-23.3L302.02-23.3 302.02-32.05 310.37-32.05 310.37-7.35Q310.37-6.4 310.77-6.08 311.17-5.75 312.22-5.75L312.22-5.75ZM300.14-17.5Q299.07-17.5 298.72-16.23 298.37-14.95 298.37-12.58 298.37-10.2 298.42-9.35 298.47-8.5 298.64-7.63 298.82-6.75 299.19-6.43 299.57-6.1 300.44-6.1 301.32-6.1 302.27-6.55L302.27-6.55 302.27-16.9Q301.22-17.5 300.14-17.5ZM342.61-7L342.11 0 325.31 0 325.31-31.05 342.61-31.05 342.11-23.4 333.86-23.4 333.86-18.75 341.01-18.75 341.01-12.15 333.86-12.15 333.86-7 342.61-7ZM352.96-22.2L353.16-22.2Q355.91-24.55 359.21-24.55 362.51-24.55 363.84-23.03 365.16-21.5 365.16-18.45L365.16-18.45 365.16 0 356.66 0 356.66-15.6Q356.66-16.85 355.56-16.85L355.56-16.85Q354.16-16.85 353.21-16.15L353.21-16.15 353.21 0 344.81 0 344.81-23.95 352.46-23.95 352.96-22.2ZM375.41 2.2L375.41 2.2 380.56 2.2Q381.46 2.2 381.46 1.4L381.46 1.4 381.46 1.2Q381.46 0.45 380.56 0.45L380.56 0.45 375.41 0.45Q374.61 0.45 374.61 1.25L374.61 1.25 374.61 1.45Q374.61 2.2 375.41 2.2ZM377.41-24.55L377.41-24.55 389.21-24.55 389.21-18.95 385.61-18.95 385.61-18.7Q387.21-17.3 387.21-15.05L387.21-15.05Q387.21-7.05 378.16-7.05L378.16-7.05 375.76-7.05Q374.86-7.05 374.86-6.23 374.86-5.4 375.71-5.4L375.71-5.4 382.51-5.4Q388.26-5.4 388.26-0.4L388.26-0.4Q388.26 3.7 385.51 5.53 382.76 7.35 377.91 7.35 373.06 7.35 370.58 6.33 368.11 5.3 368.11 2.5L368.11 2.5Q368.11 0.95 370.06-0.1L370.06-0.1 370.06-0.3Q367.61-1.65 367.61-4.2L367.61-4.2Q367.61-7.2 371.46-8.75L371.46-8.75Q369.66-10.05 368.78-11.78 367.91-13.5 367.91-16.35L367.91-16.35Q367.91-20.3 370.48-22.43 373.06-24.55 377.41-24.55ZM379.61-14.95Q379.61-16.55 379.23-17.28 378.86-18 377.86-18 376.86-18 376.48-17.28 376.11-16.55 376.11-15.05L376.11-15.05Q376.11-12 377.91-12L377.91-12Q379.61-12 379.61-14.95L379.61-14.95ZM399.11-23.7L399.11 0 390.86 0 390.86-23.7 399.11-23.7ZM391.51-25.6Q390.46-26.5 390.46-28.5 390.46-30.5 391.51-31.45 392.56-32.4 394.96-32.4 397.36-32.4 398.41-31.45 399.46-30.5 399.46-28.53 399.46-26.55 398.41-25.63 397.36-24.7 394.96-24.7 392.56-24.7 391.51-25.6ZM410.4-22.2L410.6-22.2Q413.35-24.55 416.65-24.55 419.95-24.55 421.28-23.03 422.6-21.5 422.6-18.45L422.6-18.45 422.6 0 414.1 0 414.1-15.6Q414.1-16.85 413-16.85L413-16.85Q411.6-16.85 410.65-16.15L410.65-16.15 410.65 0 402.25 0 402.25-23.95 409.9-23.95 410.4-22.2ZM435.6-17.4L435.6-17.4Q434.3-17.4 433.9-16.53 433.5-15.65 433.5-13.85L433.5-13.85 437.85-13.85 437.85-15.05Q437.85-17.4 435.6-17.4ZM435.8-24.55L435.8-24.55Q440.95-24.55 443.18-22.08 445.4-19.6 445.4-15L445.4-15Q445.4-14.4 445.05-9.6L445.05-9.6 433.65-9.6Q433.65-5.85 437.1-5.85L437.1-5.85Q438.75-5.85 443.55-7L443.55-7 444.25-0.8Q440.05 0.5 435.85 0.5L435.85 0.5Q430.7 0.5 427.95-2.88 425.2-6.25 425.2-12.05L425.2-12.05Q425.2-24.55 435.8-24.55ZM457.7-17.4L457.7-17.4Q456.4-17.4 456-16.53 455.6-15.65 455.6-13.85L455.6-13.85 459.95-13.85 459.95-15.05Q459.95-17.4 457.7-17.4ZM457.9-24.55L457.9-24.55Q463.05-24.55 465.27-22.08 467.5-19.6 467.5-15L467.5-15Q467.5-14.4 467.15-9.6L467.15-9.6 455.75-9.6Q455.75-5.85 459.2-5.85L459.2-5.85Q460.85-5.85 465.65-7L465.65-7 466.35-0.8Q462.15 0.5 457.95 0.5L457.95 0.5Q452.8 0.5 450.05-2.88 447.3-6.25 447.3-12.05L447.3-12.05Q447.3-24.55 457.9-24.55ZM478.1-13.45L478.1-13.45 478.1 0 469.8 0 469.8-23.95 477.1-23.95 477.6-22.5 477.8-22.5Q478.95-23.8 480.12-24.18 481.3-24.55 483.95-24.55L483.95-24.55 483.6-16.55 481.3-16.55Q479.35-16.55 478.72-15.95 478.1-15.35 478.1-13.45Z" opacity="1" transform="matrix(1,0,0,1,0,0)" fill="#ffffff" class="undefined-text-1" data-fill-palette-color="secondary" id="text-1"></path></svg></g></svg></g></svg></g></svg></g><g transform="matrix(1,0,0,1,433.66494152323287,0)"><svg viewBox="0 0 244.43135999999998 244.43135999999998" height="244.43135999999998" width="244.43135999999998"><g data-palette-color="#00d1cd"><rect width="66.8112384" height="244.43135999999998" fill="#ffffff" stroke="transparent" data-fill-palette-color="accent" x="0" fill-opacity="1"></rect><rect width="66.8112384" height="244.43135999999998" fill="#ffffff" stroke="transparent" data-fill-palette-color="accent" x="81.47711999999999" fill-opacity="0.75"></rect><rect width="66.8112384" height="244.43135999999998" fill="#ffffff" stroke="transparent" data-fill-palette-color="accent" x="162.95423999999997" fill-opacity="0.5"></rect></g></svg></g></svg></g></svg><rect width="395.52" height="142.5719197848886" fill="none" stroke="none" visibility="hidden"></rect></g></svg></g></svg>